<svg width="17" height="20" viewBox="0 0 17 20" fill="none" xmlns="http://www.w3.org/2000/svg">
<g id="Group 3143">
<path id="Vector" d="M16.0074 7.4084C16.0074 13.3689 9.68678 18.2344 8.27565 19.2486C8.10661 19.3662 7.88612 19.3662 7.71708 19.2486C6.31331 18.2344 0 13.3616 0 7.4084C0 3.31467 3.57926 0 7.99637 0C12.4135 0 16.0074 3.31467 16.0074 7.4084Z" fill="#056FB9"/>
<path id="Vector_2" d="M7.99608 12.9062C10.805 12.9062 13.082 10.6292 13.082 7.8203C13.082 5.01142 10.805 2.73438 7.99608 2.73438C5.1872 2.73438 2.91016 5.01142 2.91016 7.8203C2.91016 10.6292 5.1872 12.9062 7.99608 12.9062Z" fill="white"/>
</g>
</svg>
