<svg width="17" height="18" viewBox="0 0 17 18" fill="none" xmlns="http://www.w3.org/2000/svg">
<path d="M16.0671 2.7666H0.452771C0.202712 2.7666 0 2.96931 0 3.21937V16.7459C0 16.996 0.202712 17.1987 0.452771 17.1987H16.0671C16.3171 17.1987 16.5199 16.996 16.5199 16.7459V3.21937C16.5199 2.96931 16.3171 2.7666 16.0671 2.7666Z" fill="#056FB9"/>
<path d="M8.65582 9.7041H3.32318C3.2051 9.7041 3.10938 9.79983 3.10938 9.91791V14.5274C3.10938 14.6455 3.2051 14.7412 3.32318 14.7412H8.65582C8.7739 14.7412 8.86963 14.6455 8.86963 14.5274V9.91791C8.86963 9.79983 8.7739 9.7041 8.65582 9.7041Z" stroke="white" stroke-width="0.628849" stroke-miterlimit="10"/>
<path d="M16.5199 6.37598H0V7.63367H16.5199V6.37598Z" fill="white"/>
<path d="M2.69141 4.32661V1.03773C2.69141 1.03773 2.71027 1 2.72914 1H4.39559C4.39559 1 4.43332 1.01887 4.43332 1.03773V4.32661H2.69141Z" stroke="#056FB9" stroke-width="0.628849" stroke-miterlimit="10"/>
<path d="M12.0898 4.32661V1.03773C12.0898 1.03773 12.1087 1 12.1276 1H13.794C13.794 1 13.8318 1.01887 13.8318 1.03773V4.32661H12.0898Z" stroke="#056FB9" stroke-width="0.628849" stroke-miterlimit="10"/>
</svg>
