<svg width="637" height="404" viewBox="0 0 637 404" fill="none" xmlns="http://www.w3.org/2000/svg">
<g clip-path="url(#clip0_883_50239)">
<path d="M635.753 356.91L600.469 384.588L423.194 403.847L296.602 334.143L266.709 296.24L238.116 301.942L205.61 308.426L198.102 309.921L0 256.527L165.483 223.524H338.085L330.981 283.423L320.383 285.534L635.753 356.91Z" fill="#EBF2F5"/>
<path d="M348.185 259.507C348.392 260.325 348.63 261.158 348.899 262.007L199.928 291.708H199.912C195.069 278.441 199.928 266.721 199.928 266.721L348.899 237.02C348.899 237.02 348.443 238.018 347.952 239.845L345.152 240.404L327.425 243.938L201.889 268.966C200.968 271.952 199.1 279.853 201.656 288.727L330.431 263.052L345.644 260.015L348.185 259.507Z" fill="#00598C"/>
<path d="M348.184 259.508L345.643 260.016L330.43 263.053L201.655 288.728C199.099 279.854 200.967 271.953 201.888 268.967L327.424 243.939L345.151 240.405L347.951 239.846C346.978 243.52 345.891 250.536 348.184 259.508Z" fill="#0087D4"/>
<path d="M348.898 237.019L199.927 266.721L39.7637 223.525L188.735 193.818H188.74L348.898 237.019Z" fill="#00659F"/>
<path d="M199.912 291.713L39.759 248.517C35.2366 235.032 39.759 223.524 39.759 223.524L199.922 266.72C199.922 266.72 195.063 278.44 199.907 291.713H199.912Z" fill="#00598C"/>
<path d="M95.3477 223.882L113.965 239.043L208.946 264.92L311.86 244.404L322.525 214.796L152.716 215.536L95.3477 223.882Z" fill="#00598C"/>
<path d="M331.161 142.638C336.578 148.319 343.351 152.485 350.042 156.583C350.057 149.406 346.994 142.27 341.768 137.344C338.938 134.68 334.741 132.982 330.85 134.431C326.959 135.88 328.992 140.371 331.155 142.638H331.161Z" fill="#00659F"/>
<path d="M344.512 165.412C339.41 164.63 333.676 165.748 330.313 169.66C328.6 171.652 327.638 174.596 328.833 176.94C329.847 178.927 332.171 179.972 334.401 180.065C336.631 180.159 338.81 179.46 340.931 178.762C343.87 177.789 346.804 176.79 349.727 175.771C351.182 175.264 357.054 174.074 357.349 172.495C358.032 168.821 346.871 165.774 344.512 165.412Z" fill="#00659F"/>
<path d="M357.556 152.51C358.394 151.263 359.413 150.078 360.764 149.416C362.114 148.754 363.848 148.707 365.038 149.628C365.472 149.959 365.809 150.399 366.135 150.834C366.58 151.429 367.025 152.06 367.133 152.795C367.273 153.706 366.869 154.637 366.269 155.341C365.669 156.044 364.888 156.562 364.127 157.085C360.629 159.491 357.338 162.207 354.311 165.193C354.058 165.446 353.985 165.741 354.161 166.021C354.689 161.11 354.606 156.893 357.545 152.516L357.556 152.51Z" fill="#00659F"/>
<path d="M373.55 122.163C371.92 125.382 373.343 129.257 374.968 132.481C377.286 137.071 380.007 141.448 383.091 145.557C384.582 140.837 385.042 135.792 384.426 130.882C384.121 128.434 383.526 125.956 382.155 123.907C380.437 121.33 375.578 118.163 373.55 122.163Z" fill="#00659F"/>
<path d="M411.684 128.921C413.226 128.885 414.81 128.978 416.233 129.583C417.656 130.189 418.898 131.384 419.208 132.895C419.637 134.965 418.209 137.071 416.357 138.085C414.504 139.099 412.311 139.27 410.199 139.368C405.78 139.575 401.346 139.585 396.927 139.394C394.842 139.306 385.574 139.989 389.403 136.724C394.95 131.989 404.528 129.092 411.684 128.916V128.921Z" fill="#00659F"/>
<path d="M392.974 147.979C395.613 147.28 398.635 146.96 400.88 148.512C401.506 148.941 402.055 149.536 402.246 150.271C402.531 151.368 401.936 152.543 401.056 153.257C400.177 153.971 399.054 154.297 397.952 154.576C393.957 155.575 389.859 156.03 385.812 156.739C382.371 157.339 377.342 157.95 374.636 160.159C375.598 159.885 376.757 157.712 377.704 156.77C379.143 155.342 380.705 154.043 382.366 152.889C385.585 150.664 389.186 148.983 392.969 147.974L392.974 147.979Z" fill="#00659F"/>
<path d="M394.992 117.765C394.045 115.566 393.088 113.335 392.679 110.976C392.27 108.616 392.452 106.071 393.668 104.006C394.345 102.852 395.422 101.838 396.746 101.636C398.563 101.367 400.301 102.754 401.026 104.435C401.75 106.117 401.683 108.032 401.538 109.858C401.088 115.478 399.991 121.045 398.288 126.421C398.081 127.079 396.11 126.111 398.226 125.578C397.704 122.97 396.053 120.233 394.992 117.765Z" fill="#00659F"/>
<path d="M414.474 93.3738C414.588 91.6817 414.852 89.9483 415.7 88.4788C416.549 87.0093 418.086 85.8398 419.783 85.8398C422.127 85.8398 423.984 88.07 424.388 90.3778C424.792 92.6856 424.109 95.0296 423.415 97.2649C422.463 100.339 418.665 114.434 414.35 113.833C414.277 110.62 414.903 107.293 414.748 103.981C414.582 100.447 414.236 96.9079 414.474 93.3686V93.3738Z" fill="#00659F"/>
<path d="M434.147 97.1607C434.731 93.6058 435.321 90.02 436.682 86.6877C437.22 85.3682 438.043 83.9608 439.43 83.6399C441.08 83.257 442.685 84.6852 443.223 86.2944C443.926 88.3952 443.347 90.6927 442.591 92.7728C441.417 96.0068 439.725 99.1787 437.267 101.626C436.511 102.376 434.493 104.658 433.453 103.592C432.543 102.656 433.95 98.3456 434.142 97.1658L434.147 97.1607Z" fill="#00659F"/>
<path d="M462.782 88.752C464.133 88.6174 465.566 88.6071 466.772 89.2332C467.978 89.8593 468.847 91.3236 468.386 92.6017C468.169 93.2123 467.693 93.6935 467.201 94.1126C463.91 96.9327 459.435 97.8589 455.145 98.4436C452.258 98.8369 448.455 100.26 445.634 100.156C442.395 100.037 445.991 96.8913 447.347 95.6598C451.59 91.8152 457.065 89.3056 462.777 88.7468L462.782 88.752Z" fill="#00659F"/>
<path d="M428.812 114.402C430.561 114.563 432.595 115.085 433.226 116.72C433.764 118.112 432.946 119.747 431.699 120.57C430.452 121.393 428.895 121.569 427.405 121.61C420.388 121.786 413.185 119.38 406.464 121.424C409.18 121.796 411.975 122.2 414.339 123.587C416.704 124.973 418.546 127.623 418.143 130.334C417.615 133.889 413.237 135.948 409.817 134.857C406.397 133.765 404.115 130.365 403.364 126.852C402.009 120.487 406.014 119.602 410.588 117.734C416.513 115.313 422.339 113.802 428.807 114.402H428.812Z" fill="#00659F"/>
<path d="M440.554 106.667C444.6 105.492 448.776 104.768 452.982 104.514C454.897 104.4 456.91 104.4 458.612 105.29C459.326 105.663 459.983 106.216 460.309 106.951C460.635 107.686 460.584 108.628 460.035 109.223C459.487 109.813 458.617 109.942 457.815 110.004C455.011 110.216 452.191 110.04 449.381 109.859C444.258 109.528 438.898 108.716 433.78 108.912C434.391 110.045 439.167 107.075 440.554 106.672V106.667Z" fill="#00659F"/>
<path d="M478.683 98.3153C480.411 98.455 482.165 98.6827 483.744 99.3916C485.022 99.966 486.3 101.244 485.865 102.574C485.482 103.754 484.018 104.147 482.776 104.204C480.277 104.323 477.788 103.836 475.335 103.324C471.397 102.507 466.27 102.139 462.699 100.354C463.651 97.0269 475.925 98.0928 478.673 98.3153H478.683Z" fill="#00659F"/>
<path d="M413.367 181.307C415.111 182.477 416.973 183.47 418.919 184.257C420.394 184.852 422.137 185.312 423.514 184.51C425.014 183.63 425.392 181.499 424.761 179.874C424.13 178.249 422.748 177.049 421.341 176.024C418.624 174.048 415.561 172.449 412.244 171.931C410.495 171.657 402.454 171.714 403.799 174.912C404.198 175.859 407.52 177.049 408.456 177.701C410.128 178.865 411.69 180.169 413.377 181.307H413.367Z" fill="#00659F"/>
<path d="M438.525 174.616C439.446 175.03 440.424 175.387 441.438 175.371C442.453 175.356 443.503 174.895 443.989 174.005C444.641 172.815 444.098 171.341 443.436 170.156C441.547 166.787 438.727 163.998 435.55 161.799C433.972 160.707 432.29 159.745 430.469 159.155C427.467 158.182 424.135 158.306 421.186 159.419C416.12 161.323 419.587 162.28 422.531 163.946C428.125 167.108 432.616 171.977 438.525 174.621V174.616Z" fill="#00659F"/>
<path d="M431.198 143.228C432.818 139.513 435.612 136.424 438.701 133.806C440.191 132.543 441.847 131.342 443.772 131.042C445.697 130.742 447.943 131.637 448.579 133.48C449.329 135.653 447.668 137.852 446.116 139.544C442.116 143.911 438.163 148.382 433.946 152.542C428.632 157.789 430.029 145.903 431.198 143.223V143.228Z" fill="#00659F"/>
<path d="M456.951 134.929C458.151 129.879 462.063 125.092 467.232 124.575C468.184 124.482 469.167 124.534 470.042 124.927C472.474 126.014 473.121 129.361 472.179 131.85C471.237 134.339 469.178 136.207 467.299 138.101C463.289 142.158 460.143 146.711 457.173 151.549C458.006 146.064 455.605 140.6 456.956 134.924L456.951 134.929Z" fill="#00659F"/>
<path d="M467.89 163.91C468.614 166.254 469.556 168.536 470.7 170.71C471.129 171.527 471.647 172.386 472.495 172.759C473.789 173.328 475.331 172.505 476.159 171.362C478.089 168.697 477.235 164.935 475.755 161.991C473.339 157.178 468.319 151.502 462.633 150.84C463.352 152.837 465.018 154.612 465.789 156.739C466.638 159.083 467.155 161.53 467.89 163.91Z" fill="#00659F"/>
<path d="M501.761 163.626C500.374 165.21 499.133 167.026 498.755 169.101C498.377 171.176 499.039 173.546 500.799 174.71C501.59 175.233 502.527 175.481 503.453 175.678C505.714 176.154 508.312 176.288 510.097 174.819C511.567 173.608 512.11 171.564 512.053 169.665C511.996 167.766 511.432 165.913 511.07 164.045C510.765 162.472 510.796 160.899 510.584 159.326C510.325 157.381 510.697 157.22 508.747 157.883C506.175 158.747 503.495 161.645 501.761 163.626Z" fill="#00659F"/>
<path d="M504.979 143.647C506.268 143.129 507.624 142.721 509.01 142.69C510.785 142.648 512.57 143.248 513.967 144.35C515.152 145.287 516.094 146.788 515.737 148.252C515.37 149.778 513.791 150.658 512.327 151.232C509.605 152.304 506.723 152.971 503.81 153.204C501.461 153.39 499.101 153.297 496.752 153.478C494.527 153.649 493.611 153.892 494.874 151.595C496.856 147.988 501.28 145.137 504.979 143.642V143.647Z" fill="#00659F"/>
<path d="M521.878 172.045C522.334 178.612 524.062 185.09 526.944 191.01C527.834 192.836 528.859 194.647 530.38 195.992C531.901 197.338 534.007 198.161 535.989 197.716C538.323 197.193 539.989 195.051 540.786 192.795C542.204 188.759 541.407 184.21 539.549 180.361C537.691 176.511 534.856 173.23 532.031 170.017C530.178 167.906 528.528 165.588 526.416 163.715C525.024 162.478 521.904 161.888 521.185 160.201C529.174 162.136 536.579 165.189 544.993 164.868C546.597 164.806 548.237 164.625 549.686 163.932C551.135 163.238 552.382 161.955 552.666 160.377C553.049 158.271 551.616 156.16 549.743 155.13C547.87 154.101 545.644 153.935 543.507 153.93C537.039 153.919 530.297 155.172 524.517 158.173C519.333 160.869 521.537 167.057 521.884 172.051L521.878 172.045Z" fill="#00659F"/>
<path d="M328.523 232.192C328.678 232.807 328.859 233.439 329.061 234.08L216.435 256.537H216.424C212.761 246.509 216.435 237.645 216.435 237.645L329.061 215.188C329.061 215.188 328.714 215.944 328.347 217.325L326.23 217.75L312.829 220.42L217.92 239.343C217.221 241.599 215.814 247.575 217.744 254.281L315.1 234.872L326.603 232.574L328.523 232.192Z" fill="#00659F"/>
<path d="M328.523 232.191L326.603 232.574L315.101 234.872L217.744 254.281C215.814 247.57 217.222 241.598 217.92 239.342L312.829 220.419L326.231 217.75L328.347 217.325C327.612 220.104 326.79 225.408 328.523 232.191Z" fill="#0087D4"/>
<path d="M329.062 215.193L272.645 226.443C272.645 226.443 272.619 226.443 272.604 226.443L216.441 237.64L95.3496 204.984L155.844 192.923L207.976 182.527H207.981L329.062 215.188V215.193Z" fill="#0075BA"/>
<path d="M216.424 256.542L95.3434 223.886C91.9231 213.693 95.3434 204.989 95.3434 204.989L216.43 237.645C216.43 237.645 212.756 246.503 216.419 256.542H216.424Z" fill="#00659F"/>
<path d="M408.011 117.408C403.152 120.668 398.299 123.969 393.968 127.902C389.792 131.695 386.139 136.046 382.931 140.693C369.084 160.749 363.884 186.564 368.882 210.418C369.974 211.055 371.397 211.08 372.51 210.475C369.332 192.199 370.89 172.878 378.569 155.989C385.145 141.516 396.017 129.211 408.813 119.778C415.033 115.194 421.713 111.256 428.662 107.882C435.611 104.508 442.881 102.34 449.913 99.365C447.688 97.9887 441.697 100.26 439.285 100.969C435.492 102.082 431.813 103.577 428.253 105.295C421.159 108.715 414.536 113.025 408.006 117.408H408.011Z" fill="#004D7A"/>
<path d="M424.585 155.947C430.613 153.593 436.926 152.02 443.316 151.016C463.62 147.823 484.406 150.39 504.534 154.55C512.56 156.206 520.72 158.198 527.571 162.695C513.647 158.959 499.676 155.218 485.394 153.231C471.113 151.244 456.433 151.057 442.405 154.39C422.448 159.135 404.425 171.439 392.524 188.122C389.518 192.334 386.905 196.83 384.763 201.539C384.307 202.537 383.102 207.122 381.974 207.184C380.292 207.277 380.069 203.707 380.235 202.729C381.022 197.974 384.271 192.691 386.677 188.592C389.311 184.111 392.395 179.894 395.867 176.029C403.737 167.258 413.6 160.247 424.585 155.952V155.947Z" fill="#004D7A"/>
<path d="M366.854 199.2C367.951 202.232 369.26 205.549 372.132 207.008C368.08 194.574 363.879 182.15 358.306 170.316C353.188 159.45 346.798 147.854 338.063 139.44C339.052 142.907 342.607 146.591 344.485 149.727C346.72 153.458 348.816 157.271 350.798 161.147C354.808 168.981 358.332 177.058 361.581 185.239C363.418 189.865 365.162 194.527 366.854 199.21V199.2Z" fill="#004D7A"/>
<path d="M87.7155 319.209C107.648 319.209 123.807 316.109 123.807 312.286C123.807 308.462 107.648 305.362 87.7155 305.362C67.7827 305.362 51.624 308.462 51.624 312.286C51.624 316.109 67.7827 319.209 87.7155 319.209Z" fill="#EBF2F5"/>
<path d="M102.286 314.387C119.855 314.387 134.098 300.144 134.098 282.575C134.098 265.006 119.855 250.763 102.286 250.763C84.7164 250.763 70.4736 265.006 70.4736 282.575C70.4736 300.144 84.7164 314.387 102.286 314.387Z" fill="#0087D4"/>
<path d="M134.099 282.575C134.099 299.682 120.593 313.637 103.663 314.356C117.127 310.651 127.015 298.321 127.015 283.682C127.015 266.11 112.775 251.87 95.2026 251.87C94.742 251.87 94.2815 251.88 93.8262 251.901C96.5169 251.161 99.3576 250.763 102.286 250.763C119.853 250.763 134.099 265.008 134.099 282.575Z" fill="#0075BA"/>
<path d="M100.833 282.032C103.468 281.506 104.938 277.743 104.117 273.626C103.295 269.509 100.494 266.597 97.8598 267.123C95.2254 267.648 93.7555 271.412 94.5767 275.529C95.3978 279.645 98.1991 282.557 100.833 282.032Z" fill="#0075BA"/>
<path d="M117.549 278.699C119.915 278.227 121.235 274.85 120.498 271.156C119.762 267.463 117.247 264.851 114.881 265.323C112.516 265.794 111.196 269.171 111.933 272.865C112.669 276.559 115.184 279.171 117.549 278.699Z" fill="#0075BA"/>
<path d="M80.5599 287.169C80.3529 287.733 80.208 288.39 80.503 288.918C80.979 289.772 82.2209 289.715 83.1574 289.43C84.0785 289.151 84.9736 288.773 85.8119 288.297C86.0965 288.132 86.4018 287.956 86.7329 287.976C87.2452 288.007 87.5867 288.499 87.8558 288.928C89.5789 291.686 91.5865 294.31 94.1323 296.328C99.286 300.426 106.504 301.678 112.812 299.8C119.12 297.922 124.408 293.037 127.016 286.988C120.237 290.61 112.605 293.591 105.024 292.328C102.096 291.837 99.3119 290.734 96.5695 289.591C94.0185 288.53 91.4416 287.407 89.2943 285.669C90.4999 284.918 91.4106 283.708 91.8039 282.347C91.9643 281.788 91.9953 281.074 91.5193 280.732C91.2502 280.541 90.8932 280.525 90.562 280.536C86.3345 280.686 82.0553 283.066 80.5547 287.169H80.5599Z" fill="#0075BA"/>
<path d="M329.06 215.194L272.644 226.443C272.644 226.443 272.618 226.443 272.602 226.443C232.428 232.446 188.125 217.59 167.872 209.016L155.842 192.924L207.974 182.528H207.979L329.06 215.189V215.194Z" fill="#00659F"/>
<path d="M250.988 191.936C250.988 195.838 241.726 199.248 227.911 201.105C221.091 202.026 213.158 202.565 204.683 202.596C222.177 202.425 237.369 196.94 237.369 191.15C237.369 184.646 219.311 181.469 205.19 181.282C230.601 181.437 250.988 186.151 250.988 191.936Z" fill="#B77701"/>
<path d="M250.988 191.936V202.135C250.988 208.023 229.881 212.794 203.849 212.794C177.816 212.794 156.71 208.023 156.71 202.135V191.936C156.71 186.047 177.816 181.271 203.849 181.271C229.881 181.271 250.988 186.047 250.988 191.936Z" fill="#00598C"/>
<path d="M203.849 202.6C229.883 202.6 250.988 197.826 250.988 191.936C250.988 186.046 229.883 181.271 203.849 181.271C177.815 181.271 156.71 186.046 156.71 191.936C156.71 197.826 177.815 202.6 203.849 202.6Z" fill="#00598C"/>
<path d="M211.932 80.5049V190.068C211.932 193.038 203.855 193.333 203.855 193.333C203.855 193.333 201.469 193.245 199.291 192.691C197.459 192.225 195.772 191.423 195.772 190.068V80.5049H211.932Z" fill="#00598C"/>
<path d="M211.932 80.5049V190.068C211.932 193.038 203.855 193.333 203.855 193.333C203.855 193.333 201.469 193.245 199.291 192.691C199.291 192.691 206.556 193.007 206.556 189.038V80.5049H211.932Z" fill="#004D7A"/>
<path d="M250.987 191.936V202.134C250.987 208.023 229.881 212.794 203.849 212.794V202.6C221.69 202.6 237.368 197.032 237.368 191.149C237.368 184.541 218.73 181.37 204.521 181.276C230.243 181.354 250.987 186.099 250.987 191.936Z" fill="#004D7A"/>
<path d="M203.849 97.1308C170.06 97.1308 131.133 82.3372 133.907 77.3336L170.78 5.04199C170.78 2.59967 185.589 0.623047 203.849 0.623047C222.11 0.623047 236.919 2.59967 236.919 5.04199L273.797 77.3336C276.565 82.3372 237.643 97.1308 203.849 97.1308Z" fill="#00659F"/>
<path d="M214.369 96.691C239.926 94.4298 261.674 81.38 258.574 74.8706C258.564 74.8447 258.548 74.824 258.538 74.7981L229.841 18.5472C228.765 16.436 226.307 15.0596 223.575 15.0493C199.54 14.9561 170.78 10.4803 170.78 5.04199C170.78 2.59967 185.589 0.623047 203.85 0.623047C222.11 0.623047 236.919 2.59967 236.919 5.04199L273.797 77.3336C276.281 81.8249 245.199 94.1969 214.369 96.691Z" fill="#00598C"/>
<path d="M203.85 9.46093C222.114 9.46093 236.919 7.4825 236.919 5.04199C236.919 2.60147 222.114 0.623047 203.85 0.623047C185.586 0.623047 170.78 2.60147 170.78 5.04199C170.78 7.4825 185.586 9.46093 203.85 9.46093Z" fill="#00598C"/>
<path d="M636.998 345.331L436.712 367.095L321.152 313.162L506.748 292.997L636.998 345.331Z" fill="#0094E9"/>
<path d="M636.997 345.336V354.577C636.997 356.01 635.916 357.211 634.493 357.366L439.811 378.519C438.166 378.7 436.505 378.41 435.009 377.696L323.118 323.965C321.912 323.386 321.146 322.17 321.146 320.835V313.161L434.885 366.245C436.075 366.799 437.395 367.021 438.699 366.877L636.992 345.336H636.997Z" fill="#0087D4"/>
<path d="M506.748 292.997L321.153 313.161L289.366 192.386C289.03 191.118 289.904 189.85 291.208 189.705L472.488 170.012C473.544 169.898 474.522 170.57 474.796 171.6L506.753 293.002L506.748 292.997Z" fill="#0094E9"/>
<path d="M295.266 194.466L470.45 175.435L500.213 288.5L325.024 307.537L295.266 194.466Z" fill="#0087D4"/>
<path d="M301.795 198.962L466.579 181.059L493.682 284.003L328.893 301.912L301.795 198.962Z" fill="white"/>
<path d="M571.319 324.458L397.599 343.106L340.23 316.292L506.008 298.28L571.319 324.458Z" fill="#0087D4"/>
<path d="M440.749 312.158C459.382 310.135 478.01 308.106 496.638 306.088C500.467 305.674 504.332 305.276 508.099 304.909C511.835 304.541 513.397 304.712 510.355 305.167C506.702 305.711 502.904 306.29 498.666 306.823C492.084 307.656 485.135 308.489 478.237 309.276C455.879 311.827 433.499 314.404 411.063 316.882C398.846 318.233 386.418 319.449 374.222 320.66C368.685 321.213 364.421 321.467 364.235 321.141C364.043 320.82 368.152 320.111 375.624 319.237C380.948 318.61 386.428 318.01 391.846 317.42C408.145 315.64 424.449 313.876 440.754 312.106C440.754 312.127 440.754 312.148 440.754 312.163L440.749 312.158Z" fill="#0075BA"/>
<path d="M461.954 320.788C480.587 318.765 499.215 316.736 517.843 314.718C521.672 314.304 525.537 313.906 529.304 313.539C533.04 313.171 534.602 313.342 531.56 313.797C527.907 314.341 524.109 314.92 519.871 315.453C513.289 316.286 506.34 317.119 499.442 317.906C477.084 320.457 454.705 323.034 432.268 325.512C420.052 326.863 407.623 328.079 395.427 329.289C389.89 329.843 385.626 330.097 385.44 329.771C385.249 329.45 389.357 328.741 396.829 327.866C402.153 327.24 407.633 326.64 413.051 326.05C429.35 324.27 445.655 322.506 461.959 320.736C461.959 320.757 461.959 320.778 461.959 320.793L461.954 320.788Z" fill="#0075BA"/>
<path d="M471.309 340.089L500.901 353.921L561.307 347.421L528.201 334.154L471.309 340.089Z" fill="#0087D4"/>
<path d="M392.481 207.194L448.013 201.161L465.042 265.867L409.635 271.885L392.481 207.194Z" fill="#FFB5CC"/>
<path d="M400.141 238.039C418.675 236.027 437.205 234.009 455.734 232.001C459.543 231.587 463.387 231.194 467.134 230.826C470.849 230.464 472.401 230.63 469.379 231.085C465.742 231.628 461.969 232.203 457.752 232.736C451.207 233.564 444.294 234.391 437.432 235.173C415.188 237.713 392.933 240.275 370.615 242.743C358.461 244.088 346.099 245.294 333.97 246.5C328.465 247.048 324.222 247.302 324.035 246.976C323.849 246.655 327.932 245.951 335.362 245.077C340.656 244.456 346.109 243.855 351.496 243.271C367.713 241.501 383.924 239.747 400.146 237.982C400.146 238.003 400.146 238.024 400.146 238.039H400.141Z" fill="#0087D4"/>
<path d="M339.103 245.114C336.091 233.668 333.075 222.227 330.068 210.781C329.453 208.432 328.847 206.047 328.278 203.729C327.714 201.426 327.792 200.402 328.402 202.249C329.137 204.469 329.913 206.766 330.669 209.358C331.848 213.379 333.044 217.632 334.198 221.865C337.934 235.577 341.69 249.3 345.364 263.074C347.361 270.577 349.24 278.235 351.102 285.748C351.946 289.158 352.437 291.818 352.122 291.999C351.816 292.18 350.901 289.707 349.628 285.127C348.722 281.867 347.832 278.499 346.953 275.172C344.308 265.159 341.68 255.147 339.041 245.129C339.062 245.129 339.077 245.124 339.098 245.119L339.103 245.114Z" fill="#0087D4"/>
<path d="M455.398 232.032C452.386 220.587 449.37 209.146 446.363 197.7C445.748 195.351 445.142 192.966 444.573 190.648C444.009 188.345 444.087 187.32 444.697 189.168C445.432 191.388 446.208 193.685 446.964 196.277C448.143 200.298 449.339 204.551 450.493 208.784C454.228 222.496 457.985 236.219 461.659 249.993C463.656 257.496 465.535 265.154 467.397 272.667C468.241 276.077 468.732 278.737 468.417 278.918C468.111 279.099 467.196 276.625 465.923 272.046C465.017 268.786 464.127 265.418 463.247 262.091C460.603 252.078 457.975 242.066 455.336 232.048C455.356 232.048 455.372 232.043 455.393 232.038L455.398 232.032Z" fill="#0087D4"/>
<path d="M400.104 238.49C397.092 227.044 394.076 215.603 391.069 204.157C390.454 201.808 389.848 199.423 389.279 197.105C388.715 194.802 388.793 193.778 389.403 195.625C390.138 197.845 390.914 200.142 391.67 202.734C392.849 206.755 394.045 211.008 395.199 215.241C398.935 228.953 402.691 242.676 406.365 256.45C408.362 263.953 410.241 271.611 412.103 279.124C412.947 282.534 413.438 285.194 413.123 285.375C412.817 285.556 411.902 283.083 410.629 278.503C409.723 275.243 408.833 271.875 407.953 268.548C405.309 258.535 402.681 248.523 400.042 238.505C400.063 238.505 400.078 238.5 400.099 238.495L400.104 238.49Z" fill="#0087D4"/>
<path d="M410.623 271.063C429.158 269.05 447.687 267.032 466.217 265.024C470.025 264.61 473.87 264.217 477.616 263.85C481.331 263.488 482.883 263.653 479.862 264.108C476.224 264.652 472.452 265.226 468.235 265.759C461.689 266.587 454.776 267.415 447.915 268.196C425.67 270.737 403.415 273.298 381.098 275.766C368.943 277.112 356.581 278.317 344.453 279.523C338.947 280.071 334.704 280.325 334.518 279.999C334.332 279.678 338.414 278.975 345.845 278.1C351.138 277.479 356.592 276.879 361.978 276.294C378.195 274.525 394.406 272.77 410.628 271.006C410.628 271.027 410.628 271.047 410.628 271.063H410.623Z" fill="#0087D4"/>
</g>
<defs>
<clipPath id="clip0_883_50239">
<rect width="637" height="403.226" fill="white" transform="translate(0 0.621094)"/>
</clipPath>
</defs>
</svg>
