<svg width="119" height="39" viewBox="0 0 119 39" fill="none" xmlns="http://www.w3.org/2000/svg">
<path d="M61.4972 6.57956L57.82 15.9108C57.7805 16.0163 57.6882 16.0822 57.5696 16.0822H55.3554C55.25 16.0822 55.1445 16.0163 55.105 15.9108L51.4278 6.69817V15.8186C51.4278 15.9635 51.3092 16.0822 51.1642 16.0822H48.6601C48.5151 16.0822 48.3965 15.9635 48.3965 15.8186V2.00618C48.3965 1.86121 48.5151 1.74259 48.6601 1.74259H52.3768C52.4822 1.74259 52.5745 1.80849 52.6272 1.90074L56.502 11.4297L60.1792 1.91392C60.2187 1.80849 60.311 1.74259 60.4296 1.74259H64.3703C64.5153 1.74259 64.6339 1.86121 64.6339 2.00618V15.8054C64.6339 15.9504 64.5153 16.069 64.3703 16.069H61.7608C61.6158 16.069 61.4972 15.9504 61.4972 15.8054V6.57956ZM69.2205 8.89919C69.2205 9.65044 69.3391 10.3094 69.5763 10.8366C69.8268 11.377 70.1299 11.8251 70.5253 12.1941C70.9339 12.5368 71.3688 12.8136 71.8564 12.9849C72.3573 13.1431 72.8581 13.2353 73.3589 13.2353C73.8598 13.2353 74.3474 13.1563 74.8351 12.9849C75.3359 12.8136 75.7708 12.55 76.1662 12.1941C76.5616 11.8383 76.8647 11.377 77.1152 10.8366C77.3656 10.2962 77.471 9.65044 77.471 8.89919C77.471 8.14795 77.3392 7.51532 77.102 6.96177C76.8516 6.40822 76.5484 5.96011 76.153 5.60426C75.7576 5.26158 75.3095 4.98481 74.8219 4.81347C74.3342 4.64213 73.8466 4.54988 73.3458 4.54988C72.8449 4.54988 72.3441 4.62895 71.8433 4.81347C71.3556 4.98481 70.9207 5.2484 70.5121 5.60426C70.1167 5.94693 69.8136 6.40822 69.5632 6.96177C69.3259 7.51532 69.2205 8.16113 69.2205 8.89919ZM65.8992 8.91237C65.8992 7.79209 66.0969 6.76407 66.4923 5.82831C66.9009 4.90573 67.428 4.11494 68.1134 3.46914C68.7987 2.79697 69.6027 2.29614 70.4989 1.95346C71.3952 1.61079 72.3573 1.43945 73.3721 1.43945C74.3738 1.43945 75.3227 1.61079 76.2189 1.95346C77.1152 2.29614 77.9191 2.81015 78.5781 3.46914C79.2635 4.11494 79.8038 4.90573 80.1992 5.82831C80.6078 6.75089 80.8055 7.76573 80.8055 8.91237C80.8055 10.059 80.6078 11.0607 80.1992 11.9833C79.817 12.9058 79.2766 13.6834 78.5781 14.3424C77.906 14.9882 77.1283 15.4891 76.2189 15.8317C75.3359 16.1744 74.3738 16.3458 73.3721 16.3458C72.3705 16.3458 71.4083 16.1744 70.4989 15.8317C69.6027 15.4891 68.7987 14.9882 68.1134 14.3424C67.4412 13.6703 66.9009 12.8927 66.4923 11.9833C66.1101 11.0739 65.8992 10.059 65.8992 8.91237ZM85.2339 6.64546V15.8054C85.2339 15.9504 85.1153 16.069 84.9703 16.069H82.3212C82.1762 16.069 82.0576 15.9504 82.0576 15.8054V2.00618C82.0576 1.86121 82.1762 1.74259 82.3212 1.74259H85.8006C85.8929 1.74259 85.972 1.79531 86.0247 1.86121L91.3229 10.4412V2.00618C91.3229 1.86121 91.4416 1.74259 91.5865 1.74259H94.2488C94.3938 1.74259 94.5124 1.86121 94.5124 2.00618V15.8054C94.5124 15.9504 94.3938 16.069 94.2488 16.069H91.2834C91.1911 16.069 91.1121 16.0163 91.0593 15.9504L85.2339 6.64546ZM103.646 4.77393V15.7922C103.646 15.9372 103.527 16.0558 103.382 16.0558H100.72C100.575 16.0558 100.457 15.9372 100.457 15.7922V4.77393H96.3181C96.1731 4.77393 96.0545 4.65531 96.0545 4.51034V1.993C96.0545 1.84803 96.1731 1.72941 96.3181 1.72941H107.811C107.956 1.72941 108.074 1.84803 108.074 1.993V4.51034C108.074 4.65531 107.956 4.77393 107.811 4.77393H103.646ZM109.867 1.74259H118.421C118.565 1.74259 118.684 1.86121 118.684 2.00618V4.48398C118.684 4.62895 118.565 4.74757 118.421 4.74757H112.806V7.47578H117.88C118.025 7.47578 118.144 7.5944 118.144 7.73938V10.0195C118.144 10.1644 118.025 10.2831 117.88 10.2831H112.806V13.0245H118.434C118.579 13.0245 118.697 13.1431 118.697 13.2881V15.7922C118.697 15.9372 118.579 16.0558 118.434 16.0558H109.867C109.722 16.0558 109.603 15.9372 109.603 15.7922V2.00618C109.603 1.86121 109.722 1.74259 109.867 1.74259Z" fill="#0073B4"/>
<path d="M38.8276 1.00361C38.8276 0.450065 38.3794 0.00195312 37.8259 0.00195312H1.00166C0.448112 0.00195312 0 0.450065 0 1.00361V37.8278C0 38.3814 0.448112 38.8295 1.00166 38.8295H37.8259C38.3794 38.8295 38.8276 38.3814 38.8276 37.8278V1.00361Z" fill="#0073B4"/>
<path d="M118.394 26.862C117.998 25.9394 117.471 25.1486 116.773 24.5028C116.101 23.8438 115.31 23.343 114.413 23.0003C113.53 22.6577 112.568 22.4863 111.567 22.4863C110.565 22.4863 109.603 22.6577 108.693 23.0003C107.797 23.343 106.993 23.857 106.308 24.5028C105.636 25.1486 105.095 25.9526 104.687 26.862C104.291 27.7846 104.094 28.8126 104.094 29.9461C104.094 31.0795 104.291 32.0944 104.687 33.017C105.082 33.9395 105.623 34.7171 106.308 35.3761C106.993 36.0219 107.797 36.5096 108.693 36.8786C109.59 37.2213 110.552 37.3926 111.567 37.3926C112.582 37.3926 113.53 37.2213 114.413 36.8786C115.31 36.5359 116.114 36.0219 116.773 35.3761C117.458 34.704 117.998 33.9264 118.394 33.017C118.789 32.0944 119 31.0795 119 29.9461C119 28.7994 118.802 27.7846 118.394 26.862ZM115.323 31.8571C115.072 32.3975 114.769 32.8456 114.374 33.2146C113.979 33.5573 113.53 33.8209 113.043 34.0054C112.555 34.1636 112.068 34.2558 111.567 34.2558C111.066 34.2558 110.565 34.1768 110.064 34.0054C109.577 33.8341 109.142 33.5705 108.733 33.2146C108.338 32.8588 108.034 32.3975 107.784 31.8571C107.547 31.3168 107.428 30.671 107.428 29.9197C107.428 29.1685 107.534 28.5358 107.784 27.9823C108.034 27.4287 108.338 26.9806 108.733 26.6248C109.128 26.2821 109.577 26.0185 110.064 25.834C110.578 25.6626 111.066 25.5704 111.567 25.5704C112.081 25.5704 112.555 25.6495 113.043 25.834C113.557 26.0185 113.979 26.2821 114.374 26.6248C114.769 26.9674 115.072 27.4287 115.323 27.9823C115.56 28.5358 115.679 29.1816 115.679 29.9197C115.679 30.6578 115.56 31.3299 115.323 31.8571Z" fill="#0073B4"/>
<path d="M93.3652 36.8401V23.0409C93.3652 22.896 93.4839 22.7773 93.6288 22.7773H96.2911C96.4361 22.7773 96.5547 22.896 96.5547 23.0409V34.0592H103.685C103.83 34.0592 103.949 34.1778 103.949 34.3228V36.8401C103.949 36.9851 103.83 37.1037 103.685 37.1037H93.6288C93.4839 37.1037 93.3652 36.9851 93.3652 36.8401Z" fill="#0073B4"/>
<path d="M86.406 31.291C87.7899 31.2646 89.187 30.7242 89.8723 29.7753C90.3731 29.0636 90.6235 28.2201 90.6235 27.258C90.6235 26.6253 90.5181 26.0454 90.2809 25.5051C90.0568 24.9515 89.7669 24.477 89.3583 24.0685C88.9497 23.6599 88.4621 23.3568 87.8822 23.1063C87.3154 22.8823 86.6828 22.7637 85.9843 22.7637H79.1835C79.0385 22.7637 78.9199 22.8823 78.9199 23.0273V36.8396C78.9199 36.9846 79.0385 37.1032 79.1835 37.1032H81.8458C81.9908 37.1032 82.1094 36.9846 82.1094 36.8396V31.7654H83.2429L87.3022 36.9846C87.355 37.0505 87.434 37.0901 87.5131 37.0901H90.3599C90.584 37.0901 90.7026 36.8397 90.5708 36.6683L86.406 31.291ZM85.3648 29.0241H82.0962V25.5446H85.3648C86.0238 25.5446 86.5378 25.6896 86.8541 26.0059C87.1968 26.3222 87.3681 26.7308 87.3681 27.2843C87.3681 27.7983 87.21 28.2069 86.8541 28.5364C86.5246 28.8527 86.0238 29.0109 85.3648 29.0241Z" fill="#0073B4"/>
<path d="M71.6582 22.75H68.3237C68.2183 22.75 68.1129 22.8159 68.0733 22.9213L62.8805 36.7205C62.8146 36.8919 62.9464 37.0764 63.1309 37.0764H65.925C66.0305 37.0764 66.1359 37.0105 66.1754 36.9051L67.1507 34.1768H72.6599L73.6352 36.9051C73.6747 37.0105 73.767 37.0764 73.8856 37.0764H76.7983C76.9828 37.0764 77.1146 36.8919 77.0487 36.7205L71.9086 22.9213C71.8559 22.8291 71.7637 22.75 71.6582 22.75ZM68.1919 31.2773L69.9448 26.3349L71.6582 31.2773H68.1919Z" fill="#0073B4"/>
<path d="M55.5388 37.3931C54.4976 37.3931 53.5355 37.2218 52.6393 36.8791C51.7431 36.5233 50.9391 35.9961 50.2801 35.3634C49.608 34.7176 49.094 33.94 48.6986 33.0174C48.3032 32.0949 48.1055 31.08 48.1055 29.9729C48.1055 28.8658 48.3032 27.8378 48.6986 26.9284C49.1071 26.0058 49.6343 25.215 50.3197 24.5692C50.9918 23.8971 51.7694 23.3962 52.6657 23.0404C53.5619 22.6845 54.524 22.5 55.5125 22.5C56.5932 22.5 57.5158 22.645 58.3066 22.9613C59.0842 23.2644 59.7564 23.6598 60.2967 24.1606C60.8371 24.6351 61.2589 25.1491 61.5488 25.7159C61.8124 26.1903 61.9969 26.6516 62.1287 27.0734C62.1683 27.2184 62.0892 27.3633 61.9574 27.4029L59.4532 28.1937C59.3214 28.2332 59.1765 28.1673 59.1237 28.0223C59.0578 27.8378 58.9788 27.6533 58.8733 27.4424C58.7284 27.1393 58.5175 26.8493 58.2275 26.5725C57.9376 26.2826 57.5817 26.0585 57.1468 25.8872C56.7118 25.7027 56.1847 25.5972 55.552 25.5972C55.0644 25.5972 54.5899 25.6763 54.1023 25.8608C53.6146 26.0322 53.1797 26.3089 52.7975 26.6648C52.4021 27.0075 52.0989 27.4688 51.8485 28.0223C51.5981 28.5759 51.4927 29.2349 51.4927 29.9729C51.4927 30.6451 51.6113 31.2382 51.8353 31.7654C52.0594 32.2794 52.3757 32.7275 52.7579 33.0965C53.1533 33.4524 53.5882 33.7291 54.0627 33.9268C54.5635 34.1114 55.0776 34.2168 55.6179 34.2168C56.2374 34.2168 56.7646 34.1377 57.2127 33.9532C57.6608 33.7687 58.0298 33.5315 58.333 33.2679C58.6361 32.9779 58.847 32.6879 59.0183 32.3848C59.1369 32.1608 59.2424 31.9631 59.3083 31.7654C59.361 31.6336 59.4928 31.5677 59.6246 31.6072L62.1814 32.3453C62.3264 32.3848 62.4055 32.5298 62.366 32.6748C62.2473 33.0965 62.0496 33.5578 61.7861 34.0323C61.4829 34.6122 61.0612 35.1526 60.5076 35.6666C59.9672 36.1674 59.2951 36.5892 58.4779 36.9187C57.674 37.2481 56.7118 37.4195 55.6047 37.4195H55.5388V37.3931Z" fill="#0073B4"/>
<path d="M16.7632 17.3059L13.4419 25.7277C13.4023 25.8332 13.3101 25.8991 13.1914 25.8991H11.2145C11.109 25.8991 11.0036 25.8332 10.9641 25.7277L7.65594 17.4113V25.6355C7.65594 25.7804 7.53733 25.8991 7.39235 25.8991H5.19133C5.04635 25.8991 4.92773 25.7804 4.92773 25.6355V13.207C4.92773 13.062 5.04635 12.9434 5.19133 12.9434H8.51263C8.61807 12.9434 8.71032 13.0093 8.76304 13.1015L12.2557 21.6947L15.577 13.1147C15.6165 13.0093 15.7088 12.9434 15.8274 12.9434H19.3464C19.4914 12.9434 19.61 13.062 19.61 13.207V25.6355C19.61 25.7804 19.4914 25.8991 19.3464 25.8991H17.0399C16.895 25.8991 16.7763 25.7804 16.7763 25.6355L16.7632 17.3059Z" fill="white"/>
<path d="M34.8059 23.1976C34.5423 23.7379 34.1337 24.2388 33.6329 24.7001C33.1189 25.1613 32.5126 25.5436 31.7614 25.8731C31.0101 26.1762 30.1271 26.3475 29.0991 26.3475H29.0727C28.1106 26.3475 27.2144 26.1762 26.384 25.8599C25.5405 25.5304 24.8156 25.0559 24.1962 24.4496C23.5767 23.8565 23.1023 23.1185 22.7332 22.275C22.4696 21.6424 22.2851 20.9306 22.2192 20.1926C22.1929 19.9422 22.1797 19.6917 22.1797 19.4413C22.1797 19.1646 22.1797 18.8878 22.2324 18.6242C22.2983 17.8993 22.4565 17.2271 22.7332 16.6077C23.1154 15.7378 23.6031 15.0129 24.2225 14.4067C24.8552 13.8004 25.5669 13.3259 26.3972 12.9833C27.2407 12.6538 28.1238 12.4824 29.0332 12.4824C30.0348 12.4824 30.8915 12.6274 31.6296 12.9174C32.3413 13.2073 32.9739 13.5632 33.4879 14.0245C33.9887 14.4726 34.371 14.947 34.6477 15.4742C34.8981 15.896 35.0563 16.3177 35.1749 16.6999C35.2145 16.8317 35.1354 16.9767 35.0036 17.0294L32.908 17.7016C32.7762 17.7411 32.6312 17.6752 32.5785 17.5434C32.5126 17.3721 32.4335 17.1876 32.3281 16.9767C32.1831 16.6736 31.9854 16.3968 31.6955 16.1332C31.4187 15.8564 31.0628 15.6324 30.6279 15.461C30.2062 15.2765 29.6921 15.1843 29.0595 15.1843C28.585 15.1843 28.1106 15.2502 27.6493 15.4347C27.1748 15.6192 26.7399 15.8828 26.3577 16.2387C25.9755 16.5813 25.6723 17.0163 25.4351 17.5698C25.1979 18.1234 25.0924 18.7428 25.0924 19.4809C25.0924 20.1399 25.1978 20.7198 25.4219 21.2206C25.646 21.7346 25.9359 22.1695 26.305 22.5254C26.6872 22.8681 27.1089 23.1448 27.5966 23.3294C28.071 23.5139 28.585 23.6061 29.1122 23.6061C29.7053 23.6061 30.2325 23.5271 30.6806 23.3425C31.1156 23.158 31.4846 22.934 31.7614 22.6704C32.0645 22.3936 32.2754 22.1036 32.4335 21.8005C32.5522 21.5765 32.6444 21.3788 32.7103 21.1942C32.7498 21.0624 32.8948 20.9965 33.0266 21.0361L35.1354 21.6424C35.2804 21.6819 35.3594 21.84 35.3067 21.9718C35.1881 22.3013 35.0036 22.8549 34.8059 23.1976Z" fill="white"/>
</svg>
