<?xml version="1.0" encoding="UTF-8"?> <svg xmlns="http://www.w3.org/2000/svg" id="Layer_1" data-name="Layer 1" viewBox="0 0 414 172.57"><defs><style>.cls-1{fill:#e1d9ce;}</style></defs><g id="PEPSICO"><path class="cls-1" d="M136.25,79.8h-24.2v33h11.73V102.54h12.56c8.31,0,11.31-4.9,11.31-11.23C147.65,84,144.57,79.8,136.25,79.8Zm-4.9,14.7h-7.57V87.57h7.57c3,0,4.07,1,4.07,3.51S134.3,94.5,131.35,94.5Zm20.17-14.7h31.55v8H163.24v4.44h18.42v8H163.24v4.43h19.83v8H151.52Zm60.66,0H188v33h11.73V102.54h12.55c8.32,0,11.31-4.9,11.31-11.23C223.57,84,220.5,79.8,212.18,79.8Zm-4.91,14.7h-7.56V87.57h7.56c3,0,4.08,1,4.08,3.51S210.23,94.5,207.27,94.5Zm57.14,7.63c0,8-5.91,11.83-19.09,11.83-9,0-18.88-1.38-18.92-11.09h14.14a2.59,2.59,0,0,0,1.25,2.36,8.75,8.75,0,0,0,4,.69c3.65,0,4.65-1.11,4.65-2.68a2.21,2.21,0,0,0-2.11-2.22l-13.4-2.22c-5.73-1-8.1-4.67-8.1-9.29,0-8.56,7.52-10.87,17.17-10.87,13.22,0,18.67,3.84,19.08,10.82H249.44a2.69,2.69,0,0,0-1.79-2.63,8.54,8.54,0,0,0-3.66-.7c-3.49,0-4.7,1-4.7,2.36a1.54,1.54,0,0,0,1.54,1.71l14,2.31C260.75,93.48,264.41,96.53,264.41,102.13Zm3.82-22.33H280v33H268.23Zm27.86,16.5c0,6.71,3,9.34,7.23,9.34,3.71,0,5.91-1.71,6.87-5.68h13.22c-.75,4.34-2.08,7.86-5,10.26S311.06,114,303.91,114s-20.29-.55-20.29-17.65,13.18-17.67,20.29-17.67,18,1,19.5,14.1H310.19c-.34-2.35-1.75-5.78-6.28-5.78C299.12,87,296.09,89.6,296.09,96.3Zm50.48-17.66c-7.11,0-20.3.56-20.3,17.67S339.46,114,346.57,114s20.29-.55,20.29-17.65S353.68,78.64,346.57,78.64Zm0,27c-4.78,0-7.82-2.63-7.82-9.33s3-9.34,7.82-9.34,7.82,2.63,7.82,9.34S351.35,105.64,346.57,105.64Z"></path><path class="cls-1" d="M94.34,80.13c.75-15.84-12.9-33.67-31.52-35.88l0-.21c18.36,0,32.43,17,32.43,30.39a20.45,20.45,0,0,1-.63,5.78l-.31-.08Zm-1.11,2a30.11,30.11,0,0,1-4.56,4.42c-3.31-19-17.3-35.68-27.19-40.54l-.21.14c9.94,8.17,21.81,24,26.42,41.15a39.2,39.2,0,0,1-7.58,4.34C70.73,80.94,62,60.3,59.16,47.2l-.29.09C58.93,60,68,81.59,79,92.12a37.62,37.62,0,0,1-7.83,2.17C60.59,90.1,53.07,76.71,53.07,63a35.74,35.74,0,0,1,3.26-15.63l-.22-.09c-.64,1-4.64,6.5-4.64,16.17,0,15.51,7.65,27.36,17.8,31.09A35,35,0,0,1,58.39,94l-.08.23a27.74,27.74,0,0,0,10.4,1.95,28.93,28.93,0,0,0,24.76-13.9l-.24-.17Z"></path><path class="cls-1" d="M67.44,38.44c-9.64,0-20.94,7-20.94,13.32,0,2.46,2.25,4.53,6.9,4.53,10.81,0,20.85-7.42,20.85-13.2,0-3-2.91-4.65-6.81-4.65Zm3.84,4.47c0,4.87-9.34,10.82-17.16,10.82-3.45,0-5.32-1.36-5.32-3.6,0-4.94,9.46-10.79,16.79-10.79,4.78,0,5.69,2.44,5.69,3.57Z"></path><path class="cls-1" d="M42.66,54.7a10.77,10.77,0,0,0-1.36,4.77c0,4,4.08,7.78,11.58,7.78C67.31,67.25,84,56.63,84,46.77c0-4.43-4.19-6.83-7.1-7.33l-.06.17a6.13,6.13,0,0,1,4.22,5.77c0,7.86-14.72,18.56-29.38,18.56-5.62,0-9.15-2.77-9.15-6.8a8,8,0,0,1,.33-2.36l-.19-.08Z"></path><path class="cls-1" d="M89.94,47.51a7.67,7.67,0,0,1,2.77,6c0,12.77-20,25.33-37.71,25.33-10.55,0-15.36-5.21-15.15-9.84H40c.42,2.41,3.84,6.71,13.08,6.71,17.71,0,37.49-13,37.49-24.39a7.61,7.61,0,0,0-.83-3.71l.16-.13Z"></path><path class="cls-1" d="M96.63,59.43a10.88,10.88,0,0,1,.51,3.41c0,14.21-20.25,26.38-37.87,26.38-9.07,0-13.8-4.41-14.8-6.2l.16-.11c2.51,2.19,7.45,3.86,13.22,3.86,15.56,0,38.77-11.84,38.56-27.29l.22,0Z"></path></g></svg> 